<svg version="1.1" id="Layer_1" xmlns="http://www.w3.org/2000/svg" xmlns:xlink="http://www.w3.org/1999/xlink" x="0px" y="0px" viewBox="0 0 100 100" style="transform-origin: 50px 50px 0px;" xml:space="preserve"><g style="transform-origin: 50px 50px 0px;"><g fill="rgb(0, 0, 0)" style="fill: rgb(0, 0, 0); transform-origin: 50px 50px 0px; transform: scale(1);"><g style="transform-origin: 50px 50px 0px;"><g fill="rgb(0, 0, 0)" style="fill: rgb(0, 0, 0);"><style type="text/css" class="ld ld-breath" style="transform-origin: 50px 50px 0px; animation-duration: 1s; animation-delay: -1s; animation-direction: normal;">.st0{fill:#F4E6C8;} .st1{fill:#333333;} .st2{fill:#E0E0E0;} .st3{fill:#E15C64;} .st4{fill:#C33837;} .st5{fill:#D65A62;} .st6{fill:none;} .st7{fill:#F7B26A;} .st8{fill:#F47E5F;} .st9{opacity:0.2;fill:#353035;} .st10{fill:#666766;} .st11{fill:#A0C8D7;} .st12{fill:#77A4BD;} .st13{fill:#ACBD81;} .st14{fill:#FFFFFF;} .st15{fill:#849B87;} .st16{fill:none;stroke:#E0E0E0;stroke-width:4;stroke-miterlimit:10;} .st17{fill:none;stroke:#333333;stroke-width:4;stroke-miterlimit:10;} .st18{fill:#FFFFFF;stroke:#333333;stroke-width:4;stroke-miterlimit:10;} .st19{fill:none;stroke:#000000;stroke-width:4;stroke-miterlimit:10;} .st20{fill:#FFFFFF;stroke:#000000;stroke-width:4;stroke-miterlimit:10;} .st21{fill:#010101;} .st22{fill:#A5A6A6;} .st23{fill:#666666;} .st24{fill:#F3E4C7;} .st25{fill:none;stroke:#FFFFFF;stroke-linecap:round;stroke-miterlimit:10;} .st26{fill:#353035;} .st27{fill:#B93A38;} .st28{fill:#EA7C60;} .st29{fill:#E0E0E0;stroke:#F7B26A;stroke-width:8;stroke-miterlimit:10;} .st30{fill:none;stroke:#F7B26A;stroke-width:10;stroke-linecap:round;stroke-miterlimit:10;} .st31{fill:none;stroke:#010101;stroke-width:8;stroke-miterlimit:10;} .st32{fill:#F0AF6B;stroke:#010101;stroke-width:8;stroke-miterlimit:10;} .st33{fill:#829985;} .st34{fill:#A8B980;} .st35{fill:#F0AF6B;} .st36{fill:#4A3827;} .st37{fill:#332518;} .st38{fill:#E6E6E6;}</style><g class="ld ld-breath" style="transform-origin: 50px 50px 0px; animation-duration: 1s; animation-delay: -0.941176s; animation-direction: normal;"><path class="st4" d="M72.3,10.7c-13.6,0-20.9,8.6-22.3,13.8c-1.2-5.4-10.4-13.8-22.3-13.8C15.2,10.7,5,20.8,5,33.4c0,0,0,0,0,0 c0,0.6,0,1.3,0.1,1.9c0,0.1,0,0.2,0,0.3c0.1,0.6,0.2,1.2,0.3,1.8c0,0.1,0.1,0.3,0.1,0.4c0.1,0.6,0.3,1.2,0.4,1.7 c0,0.1,0.1,0.3,0.1,0.4c0.1,0.5,0.3,1,0.5,1.5c0.1,0.1,0.1,0.3,0.2,0.4c0.2,0.5,0.4,1.1,0.6,1.6c0.1,0.2,0.2,0.5,0.3,0.7 c0.2,0.5,0.5,1,0.7,1.4c0.1,0.3,0.3,0.5,0.4,0.8C8.9,46.7,9,47,9.2,47.3c0.3,0.5,0.5,0.9,0.8,1.4c0.1,0.2,0.3,0.4,0.4,0.6 c0.4,0.7,0.8,1.3,1.3,2c0,0.1,0.1,0.1,0.1,0.2c0.3,0.4,0.5,0.8,0.8,1.2h0c1,1.3,2,2.7,3.1,4h0c0.1,0.1,0.2,0.2,0.2,0.3 c0.6,0.7,1.3,1.5,1.9,2.2c0,0,0,0,0.1,0.1c3,3.4,6.4,6.6,9.7,9.7C34.3,75,41,80.4,45.6,84.7c0,0,0,0,0,0c0.4,0.4,0.8,0.8,1.2,1.2 C46.9,86,47,86,47,86.1c0.4,0.3,0.7,0.7,1,1c0,0,0,0,0.1,0.1c0.3,0.3,0.6,0.7,0.9,1c0.1,0.1,0.1,0.1,0.2,0.2 c0.3,0.3,0.6,0.6,0.8,0.9c0.2-0.3,0.5-0.7,0.7-1c0.1-0.1,0.1-0.2,0.2-0.2c0.3-0.3,0.6-0.7,0.9-1.1c0,0,0-0.1,0.1-0.1 c0.3-0.3,0.6-0.7,1-1.1c0.1-0.1,0.1-0.1,0.2-0.2c0.4-0.4,0.8-0.8,1.2-1.2c0,0,0.1-0.1,0.1-0.1c0.4-0.4,0.8-0.8,1.3-1.2 c0,0,0.1-0.1,0.1-0.1c5-4.7,12-10.3,18.6-16.4c2.6-2.4,5.2-4.9,7.5-7.4c0.1-0.1,0.2-0.2,0.2-0.2c0.6-0.7,1.2-1.4,1.9-2.1 c0.1-0.1,0.2-0.2,0.3-0.3h0c1.1-1.3,2.2-2.6,3.2-4h0c0.2-0.3,0.5-0.6,0.7-1c0.2-0.2,0.3-0.5,0.5-0.7c0.3-0.5,0.6-0.9,0.9-1.4 c0.2-0.3,0.4-0.6,0.5-0.8c0.2-0.3,0.4-0.7,0.6-1c0.2-0.4,0.5-0.8,0.7-1.2c0.1-0.2,0.3-0.5,0.4-0.7c0.3-0.5,0.5-1,0.7-1.5 c0.1-0.2,0.2-0.4,0.3-0.6c0.2-0.5,0.4-1,0.6-1.6c0.1-0.1,0.1-0.3,0.2-0.4c0.2-0.5,0.4-1.1,0.5-1.6c0-0.1,0.1-0.3,0.1-0.4 c0.2-0.6,0.3-1.2,0.4-1.8c0-0.1,0.1-0.3,0.1-0.4c0.1-0.6,0.2-1.2,0.3-1.8c0-0.1,0-0.2,0-0.3C95,34.7,95,34,95,33.4c0,0,0,0,0,0 C95,20.8,84.8,10.7,72.3,10.7z" fill="rgb(195, 56, 55)" style="fill: rgb(195, 56, 55);"></path></g><g style="transform-origin: 50px 50px 0px;"><g fill="rgb(0, 0, 0)" style="fill: rgb(0, 0, 0);"><g class="ld ld-breath" style="transform-origin: 50px 50px 0px; animation-duration: 1s; animation-delay: -0.882353s; animation-direction: normal;"><path class="st0" d="M84.2,56.6L84.2,56.6c-0.1,0.1-0.2,0.2-0.3,0.3C84,56.8,84.1,56.7,84.2,56.6z" fill="rgb(244, 230, 200)" style="fill: rgb(244, 230, 200);"></path></g><g class="ld ld-breath" style="transform-origin: 50px 50px 0px; animation-duration: 1s; animation-delay: -0.823529s; animation-direction: normal;"><path class="st0" d="M61.7,41c-0.3-0.8-1.1-1.3-2-1.2c-0.9,0.1-1.6,0.7-1.8,1.5l-5.7,22.8L50,53.2l-4.9-23.3 c-0.2-0.9-1-1.6-1.9-1.6c-0.9,0-1.7,0.6-2,1.5l-6.3,22.9H12.7c1,1.3,2,2.7,3.1,4h20.6c0.9,0,1.7-0.6,1.9-1.5l4.6-16.4L50,72.7 l0.2,0.7c0.2,0.9,1,1.6,1.9,1.6c0,0,0,0,0,0c0.9,0,1.7-0.6,1.9-1.5l6.3-25.3l2.9,7.2c0.3,0.8,1,1.2,1.9,1.2h19 c1.1-1.3,2.2-2.6,3.2-4H66.5L61.7,41z" fill="rgb(244, 230, 200)" style="fill: rgb(244, 230, 200);"></path></g><g class="ld ld-breath" style="transform-origin: 50px 50px 0px; animation-duration: 1s; animation-delay: -0.764706s; animation-direction: normal;"><path class="st0" d="M87.4,52.6L87.4,52.6c0.3-0.3,0.5-0.6,0.7-1C87.8,52,87.6,52.3,87.4,52.6z" fill="rgb(244, 230, 200)" style="fill: rgb(244, 230, 200);"></path></g><g class="ld ld-breath" style="transform-origin: 50px 50px 0px; animation-duration: 1s; animation-delay: -0.705882s; animation-direction: normal;"><path class="st0" d="M16,56.9c-0.1-0.1-0.2-0.2-0.2-0.3h0C15.9,56.7,16,56.8,16,56.9z" fill="rgb(244, 230, 200)" style="fill: rgb(244, 230, 200);"></path></g><g class="ld ld-breath" style="transform-origin: 50px 50px 0px; animation-duration: 1s; animation-delay: -0.647059s; animation-direction: normal;"><path class="st0" d="M12.7,52.6L12.7,52.6c-0.3-0.4-0.6-0.8-0.8-1.2C12.1,51.9,12.4,52.2,12.7,52.6z" fill="rgb(244, 230, 200)" style="fill: rgb(244, 230, 200);"></path></g></g></g><metadata xmlns:d="https://loading.io/stock/" class="ld ld-breath" style="transform-origin: 50px 50px 0px; animation-duration: 1s; animation-delay: -0.588235s; animation-direction: normal;">
<d:name class="ld ld-breath" style="transform-origin: 50px 50px 0px; animation-duration: 1s; animation-delay: -0.529412s; animation-direction: normal;">heartbeat</d:name>
<d:tags class="ld ld-breath" style="transform-origin: 50px 50px 0px; animation-duration: 1s; animation-delay: -0.470588s; animation-direction: normal;">pulse,wave,current,electric,heartbeat,web application</d:tags>
<d:license class="ld ld-breath" style="transform-origin: 50px 50px 0px; animation-duration: 1s; animation-delay: -0.411765s; animation-direction: normal;">rf</d:license>
<d:slug class="ld ld-breath" style="transform-origin: 50px 50px 0px; animation-duration: 1s; animation-delay: -0.352941s; animation-direction: normal;">hepr1k</d:slug>
</metadata></g></g></g></g><style type="text/css" class="ld ld-breath" style="transform-origin: 50px 50px 0px; animation-duration: 1s; animation-delay: -0.294118s; animation-direction: normal;">path,ellipse,circle,rect,polygon,polyline,line { stroke-width: 0; }@keyframes ld-breath {
  0% {
    -webkit-transform: scale(0.86);
    transform: scale(0.86);
  }
  50% {
    -webkit-transform: scale(1.06);
    transform: scale(1.06);
  }
  100% {
    -webkit-transform: scale(0.86);
    transform: scale(0.86);
  }
}
@-webkit-keyframes ld-breath {
  0% {
    -webkit-transform: scale(0.86);
    transform: scale(0.86);
  }
  50% {
    -webkit-transform: scale(1.06);
    transform: scale(1.06);
  }
  100% {
    -webkit-transform: scale(0.86);
    transform: scale(0.86);
  }
}
.ld.ld-breath {
  -webkit-animation: ld-breath 1s infinite;
  animation: ld-breath 1s infinite;
}
</style></svg>