<?xml version="1.0" encoding="utf-8"?>
<!-- Generator: Adobe Illustrator 19.0.0, SVG Export Plug-In . SVG Version: 6.00 Build 0)  -->
<svg version="1.1" id="图层_1" xmlns="http://www.w3.org/2000/svg" xmlns:xlink="http://www.w3.org/1999/xlink" x="0px" y="0px"
	 viewBox="-359 361 80 80" style="enable-background:new -359 361 80 80;" xml:space="preserve">
<style type="text/css">
	.st0{fill:#808080;}
</style>
<path class="st0" d="M-322.2,373.6c-12.6,1.4-22.7,11.5-24.2,24.1c-1.5,12.8,5.7,24.1,16.6,28.8l0,0c0-2.5-1.2-4.9-3.2-6.4
	c-6.6-4.9-10.5-13.1-9.3-22.2c1.4-10.6,10.1-19.1,20.7-20.3c14.2-1.6,26.3,9.6,26.3,23.5c0,12.4-9.5,22.5-21.6,23.5v-30l3.4,3.4
	c1.3,1.3,3.4,0.4,3.4-1.4v-0.1c0-0.5-0.2-1-0.6-1.4l-6.8-6.8c-0.8-0.8-2-0.8-2.8,0l-6.8,6.8c-0.4,0.4-0.6,0.9-0.6,1.4v0.1
	c0,1.8,2.2,2.7,3.4,1.4l3.4-3.4v30v0.1v3.9c0.7,0,1.3,0.1,2,0.1c15.2,0,27.6-12.4,27.6-27.6C-291.4,384.7-305.5,371.7-322.2,373.6z"
	/>
</svg>
